<?xml version="1.0" standalone="no"?>
<!DOCTYPE svg PUBLIC "-//W3C//DTD SVG 20010904//EN"
 "http://www.w3.org/TR/2001/REC-SVG-20010904/DTD/svg10.dtd">
<svg version="1.0" xmlns="http://www.w3.org/2000/svg"
 width="1080.000000pt" height="980.000000pt" viewBox="0 0 1080.000000 980.000000"
 preserveAspectRatio="xMidYMid meet">
<metadata>
Created by potrace 1.16, written by Peter Selinger 2001-2019
</metadata>
<g transform="translate(0.000000,980.000000) scale(0.100000,-0.100000)"
fill="#000000" stroke="none">
<path d="M4575 8851 c-11 -5 -56 -11 -100 -15 -117 -10 -231 -36 -255 -58 -11
-10 -25 -16 -30 -13 -5 3 -17 1 -27 -4 -10 -5 -38 -15 -63 -22 -25 -7 -61 -20
-80 -30 -20 -10 -54 -20 -75 -24 -40 -7 -118 -50 -164 -89 -15 -13 -21 -15
-17 -6 4 8 -13 -7 -38 -35 -25 -27 -45 -44 -46 -38 0 12 -26 -6 -72 -49 -10
-10 -18 -14 -18 -10 0 5 9 17 21 28 11 10 26 28 31 39 6 11 -10 1 -35 -22 -29
-27 -52 -40 -62 -37 -8 3 -15 1 -15 -5 0 -6 -9 -11 -20 -11 -20 0 -42 -33 -53
-81 -4 -14 -26 -50 -49 -79 -35 -44 -43 -50 -48 -34 -6 15 -10 12 -32 -19 -13
-20 -27 -34 -31 -31 -3 3 -13 -11 -22 -32 -9 -21 -19 -41 -24 -44 -10 -6 -61
-136 -61 -154 0 -30 -50 -124 -74 -139 -14 -10 -26 -25 -26 -33 0 -14 2 -14
16 -3 15 12 16 11 9 -11 -4 -13 -13 -30 -20 -36 -6 -7 -17 -27 -24 -46 -7 -18
-20 -49 -30 -68 -10 -19 -28 -66 -40 -105 -12 -38 -26 -79 -31 -90 -36 -79
-48 -117 -54 -165 -4 -30 -12 -60 -17 -67 -6 -6 -12 -42 -13 -78 -2 -40 -8
-70 -16 -75 -9 -6 -9 -15 4 -42 9 -19 17 -57 18 -84 0 -27 7 -58 14 -69 8 -11
14 -26 14 -34 0 -11 -5 -10 -20 4 l-21 19 20 -45 c10 -24 35 -60 55 -80 20
-19 36 -42 36 -50 -1 -8 -11 -2 -27 16 -26 29 -26 29 -19 5 4 -14 12 -43 18
-65 6 -22 16 -43 21 -46 5 -4 11 -39 13 -79 2 -40 9 -79 15 -86 7 -8 16 -33
21 -57 16 -73 49 -331 45 -349 -3 -10 0 -15 8 -12 21 9 76 -48 78 -80 3 -40
-19 -44 -38 -7 -8 17 -19 31 -24 31 -10 0 -23 -42 -27 -84 -1 -16 -7 -54 -14
-86 -12 -57 -11 -193 2 -205 3 -4 15 -2 26 4 13 7 22 26 27 63 5 32 10 44 12
31 3 -13 8 -23 13 -23 4 0 6 -8 3 -18 -2 -10 0 -69 6 -132 7 -87 16 -130 36
-174 14 -32 24 -65 21 -73 -4 -9 -1 -13 6 -10 7 2 12 17 11 33 0 16 -6 133
-12 259 -6 127 -14 240 -16 253 -3 13 3 103 15 200 14 123 21 258 23 443 1
181 6 271 14 280 16 20 35 296 21 306 -14 8 -8 39 15 86 13 25 20 44 15 41
-16 -10 -7 37 16 83 14 27 41 82 60 124 42 89 97 145 202 207 39 22 76 48 84
56 7 9 16 16 21 16 4 0 25 11 45 25 50 34 106 48 189 48 52 -1 72 3 81 15 10
14 24 14 125 4 206 -22 263 -29 314 -42 28 -6 84 -16 125 -20 79 -9 233 -47
238 -59 1 -4 21 -5 45 -1 31 4 50 1 72 -12 17 -10 36 -18 44 -18 13 0 60 -20
170 -74 45 -21 131 -97 131 -116 0 -15 90 -101 100 -95 5 3 12 -6 16 -20 4
-18 11 -24 21 -21 9 4 17 -1 20 -14 3 -11 17 -23 32 -26 14 -4 32 -11 39 -17
8 -6 12 -6 12 2 0 8 6 7 20 -1 11 -7 18 -18 16 -25 -3 -6 -8 -28 -12 -47 -6
-35 -5 -36 23 -36 20 0 33 8 45 28 l17 27 1 -27 c0 -28 13 -37 25 -18 15 24
24 6 18 -40 -4 -34 -2 -50 6 -50 6 0 11 -9 11 -20 0 -11 4 -20 10 -20 5 0 12
-17 15 -37 4 -21 13 -51 20 -68 29 -64 45 -124 46 -171 1 -27 8 -62 16 -77 8
-16 14 -57 14 -93 0 -43 4 -64 12 -64 8 0 7 -3 -2 -9 -11 -7 -10 -11 4 -19 16
-8 17 -21 12 -111 -4 -83 -2 -108 11 -134 14 -27 17 -66 17 -247 -1 -230 -5
-283 -28 -330 -10 -18 -13 -44 -10 -69 4 -32 2 -40 -13 -44 -18 -4 -18 -5 -1
-6 10 0 16 -5 12 -11 -3 -5 -12 -7 -20 -3 -12 4 -15 -5 -15 -42 0 -25 -5 -56
-12 -68 -7 -12 -15 -40 -18 -62 -4 -26 -11 -39 -19 -37 -9 2 -11 -3 -7 -13 4
-11 -5 -27 -24 -47 -17 -16 -30 -36 -30 -44 0 -8 -6 -14 -14 -14 -16 0 -27
-68 -12 -73 5 -2 6 -9 2 -16 -6 -9 -11 -9 -22 0 -11 9 -14 6 -14 -18 0 -35
-42 -65 -62 -45 -7 7 -22 12 -34 12 -17 0 -24 -9 -34 -45 -7 -25 -17 -48 -21
-51 -5 -3 -9 -13 -9 -23 0 -19 -38 -31 -105 -33 -16 0 -22 -3 -12 -5 20 -5 22
-17 5 -35 -7 -7 -13 -33 -13 -58 -1 -70 -9 -104 -25 -111 -10 -4 -19 3 -26 20
-11 28 -7 71 7 71 5 0 9 5 9 11 0 5 -4 8 -10 4 -16 -10 -50 19 -50 44 0 30
-37 91 -56 91 -8 0 -14 10 -14 25 0 14 -8 29 -21 35 -17 10 -18 14 -7 28 8 10
9 13 1 9 -17 -10 -36 29 -29 59 6 22 -4 47 -43 114 -5 8 -15 29 -22 45 -7 17
-21 39 -31 51 -10 11 -29 41 -41 65 -17 34 -28 45 -49 47 -16 2 -28 8 -28 13
0 14 -36 11 -49 -5 -8 -10 -9 -16 -1 -21 5 -3 10 -15 10 -26 0 -10 5 -19 10
-19 13 0 7 -70 -8 -96 -7 -13 -23 -19 -54 -20 -23 -1 -77 -7 -118 -14 -138
-22 -150 -23 -150 -11 0 6 -8 11 -18 11 -9 0 -23 9 -30 21 -7 11 -19 18 -26
16 -7 -3 -19 -1 -26 3 -29 18 -141 -74 -124 -102 9 -16 -24 7 -43 30 -6 8 -23
15 -36 16 -14 0 -23 4 -20 9 2 4 0 7 -6 7 -5 0 -12 -4 -15 -9 -3 -4 -27 -6
-53 -4 l-48 4 27 -23 c54 -46 86 -68 98 -68 6 0 18 -7 26 -15 26 -26 -6 -46
-72 -46 -42 0 -54 -3 -45 -12 20 -20 12 -26 -21 -16 -18 5 -40 9 -48 9 -13 0
-13 -1 0 -10 12 -8 10 -10 -10 -11 -22 -1 -21 -2 8 -10 24 -7 32 -14 28 -25
-3 -9 -6 -18 -6 -20 0 -3 -4 -2 -10 1 -5 3 -10 2 -10 -3 0 -5 29 -12 65 -15
35 -3 75 -13 87 -21 39 -24 169 -48 273 -50 80 -1 100 -5 100 -16 0 -16 -83
-30 -178 -30 -26 0 -45 -4 -42 -9 3 -6 0 -13 -6 -17 -6 -3 -15 -1 -19 6 -7 11
-13 10 -34 -4 -14 -9 -26 -12 -26 -6 0 5 -12 10 -27 9 -25 0 -26 -1 -8 -9 18
-7 18 -8 3 -14 -43 -15 -48 -15 -48 0 0 10 -6 14 -17 10 -10 -2 -27 -7 -38
-10 -27 -8 -56 10 -36 23 7 5 9 11 4 14 -12 7 -44 2 -116 -18 -32 -9 -62 -13
-67 -10 -13 8 -13 42 -1 49 5 3 7 15 4 26 -4 14 1 22 17 28 12 4 21 12 20 17
-1 6 9 13 22 17 19 5 18 6 -12 9 -34 2 -34 2 10 9 37 6 40 7 15 9 l-30 3 25 9
c19 7 16 8 -17 4 -23 -3 -48 -8 -57 -11 -12 -4 -16 0 -16 16 0 21 -3 22 -39
16 -25 -4 -41 -2 -43 5 -2 6 -16 -2 -31 -17 -30 -29 -36 -49 -12 -40 8 3 15 1
15 -3 0 -12 -30 -22 -42 -14 -6 3 -8 2 -5 -4 3 -5 -1 -22 -9 -37 -16 -33 -18
-50 -4 -41 6 3 10 -3 10 -14 0 -11 -5 -23 -10 -26 -6 -3 -10 -15 -10 -26 0
-11 5 -17 10 -14 6 3 10 -1 10 -9 0 -9 -4 -16 -10 -16 -14 0 -12 -47 5 -104 8
-26 12 -52 9 -57 -3 -5 0 -9 5 -9 6 0 11 -21 11 -49 0 -38 -6 -56 -25 -79 -27
-32 -32 -52 -14 -52 8 0 8 -5 -1 -15 -7 -9 -9 -22 -5 -32 21 -47 13 -69 -20
-57 -9 4 -14 13 -11 20 8 21 -21 17 -43 -5 -21 -21 -31 -18 -31 10 0 10 -6 24
-13 31 -22 22 -29 51 -15 60 9 5 6 8 -9 8 -13 0 -23 5 -23 11 0 5 -4 8 -9 4
-10 -6 -41 49 -41 72 0 20 20 16 21 -4 0 -15 2 -15 9 2 5 11 9 27 9 35 1 13 0
13 -10 0 -8 -11 -9 -7 -5 18 3 18 1 32 -4 32 -6 0 -10 -4 -10 -10 0 -5 -6 -9
-12 -7 -9 1 -13 -10 -13 -33 0 -31 -3 -35 -26 -35 -18 1 -25 -4 -22 -12 10
-26 -5 -12 -26 23 -26 44 -26 48 2 63 12 6 15 10 5 7 -24 -7 -30 5 -10 21 9 8
11 12 5 8 -8 -4 -13 0 -13 9 0 8 5 16 11 18 7 2 13 16 15 32 4 38 -16 29 -41
-20 l-20 -39 -3 43 c-2 23 -8 42 -14 42 -6 0 -8 9 -5 20 3 11 1 20 -4 20 -4 0
-6 7 -3 15 4 8 1 15 -6 15 -20 0 3 -114 40 -195 11 -22 24 -53 30 -68 5 -16
19 -31 30 -34 11 -3 20 -11 20 -18 0 -7 7 -15 15 -19 8 -3 15 -9 14 -13 -4
-23 2 -43 11 -38 6 4 10 -16 10 -52 0 -33 4 -63 8 -68 5 -6 20 -37 33 -70 13
-33 40 -95 61 -138 21 -43 38 -80 38 -82 0 -2 11 -21 25 -41 14 -21 24 -44 23
-50 -4 -17 -204 -221 -230 -235 -38 -21 -14 9 106 131 66 66 115 120 110 120
-5 0 -52 -41 -104 -91 -52 -50 -112 -101 -133 -115 -52 -34 -142 -122 -134
-131 4 -3 17 3 30 15 18 17 36 22 76 22 l53 0 -7 -29 c-5 -25 -3 -29 23 -34
27 -6 95 -77 73 -77 -5 0 -13 5 -16 11 -4 6 -14 8 -22 5 -8 -3 -11 -1 -8 4 3
6 -3 10 -14 10 -27 0 -27 -14 -1 -26 18 -8 19 -11 7 -28 -13 -17 -14 -17 -48
3 -19 11 -51 21 -71 21 -34 0 -39 -4 -54 -38 -11 -25 -17 -70 -18 -141 l-1
-104 30 -24 c75 -60 277 -153 332 -153 18 0 38 -12 61 -37 38 -42 122 -166
122 -181 0 -14 39 -46 47 -38 4 4 3 10 -2 14 -6 4 -21 28 -35 54 -13 26 -32
57 -42 70 -50 63 -89 122 -143 213 -32 55 -61 102 -64 105 -17 14 -61 81 -84
127 -23 46 -24 52 -9 58 9 3 14 3 10 0 -7 -8 4 -22 122 -153 47 -51 89 -101
94 -110 6 -10 23 -30 38 -47 16 -16 49 -58 75 -92 25 -35 50 -63 55 -63 4 0 8
-7 8 -16 0 -8 4 -12 10 -9 5 3 10 0 10 -7 0 -7 12 -26 26 -43 15 -16 45 -55
68 -85 22 -30 43 -57 46 -60 3 -3 21 -27 39 -55 19 -27 37 -52 41 -55 3 -3 17
-23 31 -45 206 -317 193 -294 228 -403 33 -101 54 -277 31 -256 -6 7 -13 24
-13 38 -2 24 -3 25 -15 9 -8 -11 -9 -19 -2 -21 5 -2 10 -17 10 -33 0 -18 -4
-28 -10 -24 -12 7 -12 1 -1 -47 5 -22 5 -38 0 -38 -5 0 -9 -4 -9 -10 0 -5 8
-7 18 -4 14 5 14 3 -3 -11 -16 -13 -17 -17 -6 -24 9 -6 10 -10 2 -16 -9 -5 -9
-11 1 -23 11 -13 11 -14 0 -8 -10 6 -12 1 -9 -20 2 -16 7 -37 11 -46 5 -10 4
-31 -2 -47 -9 -26 -8 -28 11 -23 12 3 16 7 9 10 -17 5 -15 22 2 22 8 0 18 4
21 10 3 6 -1 7 -9 4 -9 -4 -16 -1 -16 6 0 6 9 14 21 17 16 4 18 8 7 14 -11 8
-11 11 1 18 7 5 11 13 7 19 -3 5 1 13 10 16 9 4 14 13 10 21 -3 8 -2 15 3 15
5 0 11 9 14 20 3 11 10 20 16 20 7 0 9 -10 4 -27 -4 -16 -7 -36 -7 -45 0 -10
-4 -18 -9 -18 -5 0 -7 -6 -4 -14 3 -7 0 -19 -6 -25 -6 -6 -7 -11 -3 -11 5 0 3
-6 -3 -14 -6 -8 -11 -18 -10 -22 1 -5 -4 -22 -11 -39 -7 -16 -12 -36 -11 -42
1 -7 -3 -13 -9 -13 -6 0 -8 -5 -5 -10 4 -6 -1 -24 -9 -41 -9 -17 -13 -35 -10
-40 3 -5 1 -9 -5 -9 -5 0 -12 -10 -14 -22 l-4 -23 -8 22 c-12 36 -26 16 -19
-27 8 -52 -2 -91 -21 -84 -13 5 -19 -5 -17 -28 1 -3 -5 -12 -13 -18 -21 -17
-19 -34 2 -25 13 4 10 -2 -8 -22 -15 -15 -37 -59 -49 -98 -30 -95 -31 -105
-15 -98 8 2 13 10 12 16 -1 6 10 12 25 12 15 1 35 9 46 18 10 9 21 15 24 12 2
-3 22 63 42 146 21 83 51 187 68 232 44 121 77 238 133 487 20 85 38 164 41
175 10 33 4 276 -7 296 -17 33 -33 230 -20 262 14 36 50 38 46 1 -2 -20 4 -28
29 -39 l31 -13 -30 -1 c-25 -1 -33 -8 -47 -42 -18 -42 -16 -59 5 -59 7 0 22
-8 35 -18 l23 -18 -36 -12 c-29 -11 -33 -16 -25 -31 5 -10 24 -21 41 -25 31
-6 32 -7 13 -20 -12 -9 -21 -11 -25 -4 -4 5 -9 2 -13 -7 -9 -24 0 -33 29 -30
14 2 25 -2 26 -8 0 -7 4 -3 9 8 9 18 9 18 8 -5 -1 -14 0 -41 2 -60 2 -29 4
-24 14 30 7 36 18 75 24 87 12 21 14 21 48 7 27 -11 56 -13 117 -9 64 5 86 4
101 -8 18 -13 19 -16 4 -31 -9 -9 -20 -16 -25 -16 -4 0 -14 -12 -21 -28 -27
-54 -27 -56 -4 -50 17 5 22 2 22 -13 0 -10 -4 -19 -10 -19 -5 0 -10 -7 -10
-15 0 -9 -6 -12 -16 -8 -14 5 -15 3 -4 -17 l12 -23 20 24 c10 13 37 56 59 95
37 68 42 73 98 93 91 33 141 37 169 13 14 -12 19 -23 12 -27 -17 -10 -11 -44
10 -55 15 -8 21 -6 30 10 8 15 21 20 52 20 35 0 49 6 81 38 l38 37 97 -2 c53
-2 124 0 158 3 55 5 65 9 111 52 28 26 72 79 96 117 48 74 93 123 103 112 4
-3 15 -2 25 3 12 7 20 7 24 0 4 -6 15 -8 26 -5 14 5 22 -1 31 -20 10 -21 16
-25 39 -20 15 4 40 8 56 10 46 6 124 55 191 122 54 53 149 123 168 123 3 0 13
9 22 20 25 28 132 90 158 90 12 0 24 6 27 14 4 11 28 12 114 9 209 -10 327 -7
381 8 30 9 57 20 60 26 4 7 28 17 54 23 26 7 53 18 59 26 22 27 55 15 50 -18
0 -5 7 -8 17 -8 13 0 22 14 32 47 l14 48 6 -50 c5 -33 7 -40 9 -20 2 35 21 73
21 43 0 -10 7 -18 15 -18 16 0 16 1 20 37 1 13 8 30 16 40 8 9 9 14 4 11 -6
-4 -16 2 -23 13 -10 16 -9 19 3 19 8 0 15 5 15 11 0 8 5 7 16 -2 13 -10 17
-10 25 2 12 19 11 25 -7 43 -8 9 -12 16 -7 16 4 0 -3 7 -16 16 -18 13 -25 14
-31 4 -10 -16 -54 -9 -58 11 -2 13 7 15 60 11 35 -2 71 -9 81 -14 10 -5 17 -5
17 1 0 5 17 7 38 5 95 -9 234 -12 226 -4 -5 5 -72 14 -149 20 -77 6 -147 13
-155 15 -8 3 -112 13 -230 24 -143 14 -226 26 -248 36 -19 10 -76 20 -140 24
-59 5 -117 13 -128 19 -44 24 -188 64 -289 82 -38 6 -122 29 -186 51 -64 21
-128 39 -141 39 -14 0 -33 9 -44 21 -46 51 -107 60 -118 16 -6 -26 -98 -123
-124 -131 -10 -4 -64 -51 -120 -106 -55 -55 -108 -100 -117 -100 -8 0 -15 -9
-15 -20 0 -13 -5 -18 -15 -14 -10 4 -13 15 -10 33 l5 26 -12 -27 c-7 -16 -15
-28 -20 -28 -4 0 -5 -8 -2 -17 5 -14 4 -15 -4 -4 -5 7 -15 10 -21 6 -26 -15
-43 17 -40 74 4 69 -3 81 -47 81 -28 0 -34 -4 -34 -21 0 -12 -5 -19 -12 -17
-7 3 -22 -7 -34 -21 l-22 -26 -6 25 c-7 36 -3 73 12 88 18 20 15 31 -14 42
-39 15 -62 12 -81 -10 -11 -13 -30 -20 -53 -20 -46 0 -81 -10 -74 -21 3 -5 -2
-9 -10 -9 -8 0 -18 5 -21 10 -10 15 -25 12 -25 -6 0 -11 -6 -14 -20 -9 -27 9
-60 -3 -54 -19 10 -25 -45 -29 -90 -6 -39 19 -42 19 -54 3 -7 -10 -18 -17 -23
-16 -5 2 -9 -4 -9 -12 0 -9 -9 -15 -21 -15 -26 0 -49 -23 -49 -49 0 -17 -16
-64 -27 -80 -1 -2 -9 2 -17 8 -10 8 -16 9 -21 1 -3 -6 -11 -8 -16 -4 -5 3 -7
9 -4 14 3 4 -2 13 -9 19 -11 9 -12 20 -4 47 5 20 7 42 4 50 -3 8 -1 14 4 14 6
0 10 5 10 11 0 5 -4 7 -10 4 -6 -3 -10 -1 -10 5 0 13 -52 9 -62 -4 -4 -6 -3
-17 1 -25 9 -18 -5 -81 -18 -81 -5 0 -11 -9 -14 -20 -8 -29 -27 -24 -28 8 0
15 -3 21 -6 14 -2 -6 -9 -10 -14 -6 -5 3 -9 -2 -9 -11 0 -9 -4 -13 -10 -10 -5
3 -10 21 -10 40 0 36 -16 56 -26 32 -3 -8 -18 -17 -34 -20 -17 -4 -35 -18 -46
-37 -10 -16 -22 -30 -26 -30 -4 0 -8 -7 -8 -15 0 -8 -4 -15 -10 -15 -5 0 -12
-17 -16 -37 -4 -21 -15 -56 -25 -79 -39 -86 -55 -269 -34 -386 4 -21 8 -141 6
-182 -3 -84 -32 71 -47 254 -3 47 -8 92 -9 101 -7 38 47 256 77 309 17 30 34
57 38 60 4 3 10 15 14 28 4 12 24 31 44 41 20 11 51 33 67 51 43 46 87 65 205
89 58 12 134 28 170 36 85 19 213 29 185 15 -17 -9 -15 -10 11 -6 17 3 54 8
82 12 30 4 49 11 46 16 -4 6 2 7 15 3 16 -5 29 2 53 27 17 18 25 24 17 14 -13
-18 -12 -19 4 -13 10 4 20 7 22 7 8 0 65 101 85 150 13 30 30 73 40 95 10 22
25 58 35 80 9 22 44 94 78 160 33 66 73 145 88 175 15 30 29 68 31 85 3 29 2
30 -32 27 -19 -2 -55 -12 -79 -23 -24 -10 -47 -17 -51 -14 -10 6 -3 121 9 144
5 9 12 36 15 61 4 25 11 56 17 70 5 14 16 70 24 125 8 55 17 111 19 125 3 14
8 55 12 92 l7 66 30 -10 c22 -8 39 -8 65 2 45 16 86 53 79 71 -4 10 -6 10 -6
-2 -1 -17 -41 -49 -62 -49 -8 0 -7 5 2 18 13 15 12 16 -3 4 -12 -10 -22 -11
-35 -3 -10 6 -14 11 -9 11 5 0 3 7 -4 15 -11 13 -10 24 0 58 20 62 25 67 62
53 25 -9 32 -8 36 2 3 9 9 7 22 -8 l19 -21 10 38 c6 21 11 55 11 76 0 20 4 37
9 37 7 0 31 51 31 66 0 2 -19 -15 -42 -37 -33 -34 -43 -38 -50 -26 -9 16 -1
47 12 47 12 0 51 99 48 122 -2 12 -12 26 -23 32 -37 20 -59 56 -61 97 -1 22
-10 49 -20 60 -13 15 -15 22 -6 31 7 7 12 21 12 33 0 11 9 37 20 58 11 20 20
45 20 54 1 10 7 32 14 48 13 28 14 27 9 -30 -3 -39 -1 -55 5 -47 22 32 44 3
36 -48 -3 -21 3 -63 16 -105 12 -38 21 -87 20 -107 -1 -52 15 -47 47 15 27 50
28 58 27 187 -1 153 -3 172 -27 198 -19 21 -11 38 10 21 10 -9 13 -7 13 10 0
12 11 32 25 45 14 13 34 45 46 72 24 54 50 84 74 84 17 0 17 -9 15 225 0 94 5
220 11 280 12 124 12 220 -1 280 -11 51 -16 212 -7 221 4 4 5 16 3 28 -2 12
-1 15 1 9 12 -35 23 -5 23 60 0 65 -2 73 -22 82 -23 11 -67 79 -68 106 0 26
-50 131 -75 159 -24 27 -39 70 -24 70 13 0 11 37 -2 45 -5 4 -8 12 -6 18 2 7
-7 34 -20 60 -25 51 -25 69 2 47 21 -17 21 8 -1 38 -22 32 -3 27 50 -13 79
-61 56 -28 -65 94 -82 83 -149 141 -161 141 -5 0 -8 6 -8 13 0 6 -19 28 -42
47 -23 19 -54 47 -69 61 -15 14 -39 33 -53 43 -15 9 -25 20 -22 25 15 23 -105
111 -151 111 -30 0 -63 28 -56 47 5 12 2 15 -9 11 -27 -11 -111 23 -283 116
-38 21 -74 41 -80 46 -5 4 -21 10 -35 13 -14 3 -34 13 -45 21 -18 13 -16 14
25 5 25 -5 54 -14 65 -19 41 -20 75 -29 75 -21 0 11 -10 15 -129 56 -57 20
-103 43 -117 58 -25 28 -79 43 -112 33 -13 -4 -24 -2 -29 7 -4 8 -18 19 -31
26 -12 7 -20 16 -17 22 4 5 0 9 -7 9 -7 0 -26 7 -43 16 -18 10 -54 16 -92 16
-35 0 -65 4 -68 9 -7 11 -42 11 -70 0z m-365 -4196 c4 -3 43 -9 86 -14 44 -6
95 -12 114 -15 19 -2 82 -7 140 -11 74 -5 110 -11 123 -23 21 -18 7 -31 -33
-32 -14 0 -34 -7 -44 -15 -13 -9 -47 -15 -100 -16 -175 -3 -163 -1 -190 -39
-35 -51 -66 -73 -103 -75 -19 -1 -36 -5 -40 -8 -3 -4 -14 -2 -23 3 -26 14 -48
-14 -32 -41 7 -10 12 -30 12 -44 0 -16 6 -25 16 -25 9 0 33 -18 53 -39 30 -33
44 -40 91 -46 30 -4 73 -17 95 -28 22 -12 65 -24 95 -28 30 -4 80 -16 110 -27
52 -18 54 -20 33 -32 -17 -11 -20 -20 -16 -47 4 -26 2 -33 -11 -33 -14 0 -22
-28 -17 -62 2 -18 -35 2 -40 23 -4 13 -7 20 -8 14 -2 -20 -87 -46 -129 -40
-37 5 -41 4 -53 -24 -7 -16 -18 -27 -24 -23 -5 4 -20 7 -31 7 -15 1 -20 -4
-16 -15 4 -12 2 -12 -8 -3 -7 6 -18 9 -25 7 -16 -7 -28 23 -13 32 8 5 5 10 -8
15 -30 12 -72 10 -80 -3 -5 -8 -2 -9 9 -5 19 7 29 -5 21 -26 -4 -12 -10 -10
-30 10 -16 16 -31 22 -42 18 -9 -3 -13 -3 -10 1 8 8 -16 34 -31 34 -6 0 -11
-4 -11 -10 0 -5 5 -10 11 -10 5 0 7 -5 3 -11 -5 -8 -10 -6 -16 5 -5 9 -23 17
-41 17 -24 1 -26 3 -9 6 12 2 22 9 22 14 0 5 11 9 25 9 14 0 25 5 25 11 0 7
-10 9 -25 5 -15 -4 -25 -2 -25 4 0 6 -12 4 -30 -5 -36 -19 -36 -19 -36 4 0 11
4 17 8 15 4 -3 8 -1 8 5 0 5 10 12 23 14 19 4 19 4 -5 6 -22 1 -25 5 -21 22 5
19 3 21 -21 17 -15 -3 -24 -2 -19 2 4 5 17 10 28 12 15 3 19 10 16 28 -1 14
-8 28 -15 33 -8 5 -5 12 9 23 19 16 18 16 -21 10 -32 -4 -41 -3 -41 9 0 10 8
15 20 13 11 -2 22 3 24 10 3 6 0 12 -7 12 -6 0 -8 4 -5 10 3 5 0 7 -9 4 -9 -3
-17 3 -21 16 -6 18 -12 21 -36 16 -26 -5 -29 -3 -29 19 0 25 -14 33 -24 16 -3
-5 -15 -11 -27 -14 l-21 -6 20 20 c18 16 20 24 12 45 -14 36 -13 41 10 47 12
3 20 14 20 26 0 12 5 21 10 21 6 0 10 6 10 14 0 8 7 16 15 20 8 3 15 12 15 20
0 16 36 75 72 118 l23 28 119 -5 c65 -3 122 -8 126 -10z m821 -185 c4 -16 7
-19 8 -7 1 9 6 17 11 17 6 0 8 -11 4 -27 -3 -16 -7 -45 -8 -65 -1 -35 -30 -73
-47 -62 -11 6 -31 -24 -24 -36 8 -13 -30 -13 -56 0 -32 17 -24 41 11 34 43 -9
39 16 -6 41 -30 16 -37 17 -45 4 -7 -12 -9 -12 -9 1 0 22 12 36 38 44 22 7 31
26 12 26 -18 0 24 49 45 53 40 9 59 2 66 -23z m1320 -871 c20 -10 20 -11 2
-25 -17 -14 -16 -14 6 -4 64 32 33 -49 -60 -157 -52 -60 -88 -79 -104 -53 -3
5 -13 6 -22 3 -13 -5 -15 -1 -10 18 3 13 9 40 12 59 5 27 19 44 62 78 31 23
52 42 48 42 -4 0 -2 7 5 15 7 8 16 12 21 9 5 -3 6 2 3 10 -7 19 9 21 37 5z
m-2461 -202 c0 -33 15 -50 37 -43 14 4 20 2 20 -9 0 -8 -7 -15 -16 -15 -10 0
1 -16 29 -42 25 -24 50 -41 56 -40 6 1 17 -5 24 -13 7 -8 19 -15 27 -15 16 0
43 -23 43 -37 0 -13 55 -43 78 -43 11 0 25 -7 32 -15 7 -9 21 -13 35 -9 13 3
26 1 29 -5 4 -6 0 -11 -8 -11 -17 0 -20 -8 -8 -27 9 -14 52 -13 52 1 0 5 2 7
5 4 10 -9 -48 -88 -64 -88 -9 0 -2 -9 17 -21 41 -27 41 -33 -3 -26 -19 3 -35
2 -35 -2 0 -9 66 -41 85 -41 8 0 15 -4 15 -10 0 -5 14 -10 30 -10 29 0 51 -23
36 -37 -10 -10 -143 -5 -179 6 -18 6 -57 18 -87 27 -69 21 -118 60 -163 127
-43 64 -63 123 -81 235 -24 144 -28 194 -16 187 5 -3 10 -16 10 -28z"/>
<path d="M5081 6599 c-23 -10 -41 -23 -41 -29 0 -14 -37 -13 -42 2 -4 10 -9 8
-21 -3 -20 -20 -84 -34 -100 -21 -22 17 -79 23 -95 10 -13 -11 -86 -34 -132
-41 -9 -2 -21 -7 -29 -11 -7 -5 -43 -8 -79 -8 -37 0 -73 -4 -80 -10 -17 -14
-152 -16 -160 -3 -12 19 -139 63 -167 58 -18 -4 -33 1 -51 18 -23 22 -34 24
-107 22 -204 -5 -307 -12 -326 -22 -25 -14 -34 -14 -26 0 4 6 -2 5 -13 -2 -12
-7 -19 -16 -16 -20 8 -14 -36 -16 -55 -2 -18 12 -22 12 -38 -7 -10 -11 -25
-20 -35 -20 -10 0 -18 -4 -18 -10 0 -5 -6 -10 -13 -10 -7 0 -13 -9 -14 -21 -2
-17 2 -20 20 -15 21 5 21 4 -3 -14 -14 -11 -32 -20 -40 -21 -8 0 -4 -5 10 -9
17 -5 19 -8 8 -9 -53 -3 14 -66 70 -66 28 0 30 2 15 13 -9 6 -12 12 -6 12 6 0
22 -9 36 -20 14 -12 40 -20 61 -20 20 0 36 -4 36 -10 0 -5 10 -10 23 -10 58
-1 58 -42 0 -52 -73 -12 -129 -43 -163 -89 -30 -41 -34 -64 -13 -64 6 0 26 20
45 45 40 53 101 79 190 80 80 0 97 -8 61 -30 -15 -9 -50 -22 -77 -29 -66 -16
-128 -45 -146 -68 -25 -31 -36 -57 -32 -76 4 -18 4 -18 18 0 7 10 14 13 14 7
0 -8 20 -11 60 -8 33 2 60 -1 60 -6 0 -5 7 -15 15 -24 9 -9 11 -17 5 -21 -5
-3 -10 -2 -10 2 0 5 -9 9 -19 9 -15 0 -17 -3 -9 -13 8 -10 6 -13 -6 -13 -9 0
-16 -4 -16 -10 0 -5 5 -10 10 -10 6 0 15 -11 20 -25 5 -14 14 -25 20 -25 6 0
11 -10 10 -22 -6 -71 13 -88 118 -108 30 -5 68 -20 85 -32 41 -29 142 -32 162
-5 7 9 16 17 21 17 5 0 20 12 33 25 13 14 26 25 30 25 13 0 67 82 110 166 34
67 42 95 47 160 7 86 17 114 39 114 8 0 15 5 15 10 0 6 9 10 20 10 11 0 20 3
20 8 0 4 15 8 34 9 27 2 36 -2 41 -17 4 -11 11 -17 17 -14 7 5 9 1 5 -9 -3 -9
4 -26 19 -43 17 -18 27 -42 30 -73 3 -25 9 -61 14 -80 5 -19 7 -38 4 -43 -3
-5 0 -15 6 -23 6 -8 9 -19 5 -26 -4 -6 -3 -14 2 -18 5 -3 22 -34 38 -68 16
-35 35 -63 42 -63 8 0 19 -11 25 -25 13 -28 21 -31 36 -12 9 11 29 13 74 8 5
-1 25 -17 47 -36 43 -39 96 -64 126 -59 10 1 25 -2 31 -7 14 -12 51 -8 81 9
12 7 29 12 37 12 9 0 16 6 16 14 0 17 44 34 92 34 44 0 58 7 58 32 0 11 10 20
26 24 16 4 24 12 21 20 -6 14 32 56 49 56 6 0 18 16 27 36 15 30 22 35 40 30
12 -3 38 -3 57 0 39 6 99 49 86 61 -5 4 -11 2 -13 -5 -3 -6 -9 -9 -14 -6 -6 3
-6 11 2 20 6 7 15 11 20 8 5 -3 5 5 0 18 -4 13 -7 31 -6 40 2 9 -3 19 -11 22
-8 3 -14 19 -14 37 0 21 4 30 13 26 7 -3 21 1 32 9 10 8 27 14 37 14 22 0 24
18 3 26 -8 4 -12 10 -9 15 3 5 7 37 9 70 5 72 -24 154 -75 219 -42 53 -88 73
-163 73 -34 -1 -68 4 -75 9 -7 6 -29 8 -53 4 -29 -5 -44 -2 -56 9 -9 10 -23
13 -35 9 -13 -4 -18 -2 -14 4 11 19 -32 20 -73 1z"/>
<path d="M3932 5252 c-10 -10 -33 -24 -52 -32 -42 -16 -71 -39 -68 -54 2 -6
-21 -33 -49 -60 -29 -26 -55 -58 -59 -70 -4 -11 -15 -28 -25 -37 -11 -9 -19
-24 -19 -34 0 -10 -6 -26 -14 -34 -17 -19 -37 -99 -27 -106 4 -2 6 -18 3 -35
-6 -43 2 -37 31 23 33 66 67 104 142 157 33 24 71 54 85 69 24 25 100 136 100
147 0 3 9 19 21 35 11 16 17 33 14 39 -10 16 -64 11 -83 -8z"/>
<path d="M5975 3956 c-11 -9 -37 -29 -59 -46 -21 -16 -36 -30 -32 -30 4 0 -7
-12 -26 -27 -50 -43 -76 -75 -82 -106 -4 -18 -10 -26 -17 -21 -8 4 -9 3 -5 -4
4 -6 -2 -29 -14 -51 -19 -38 -27 -91 -14 -91 8 0 45 41 59 65 11 18 76 45 113
45 13 0 22 6 22 15 0 17 16 20 25 5 4 -7 13 -7 26 0 11 6 24 8 29 5 5 -3 37
-8 72 -11 35 -3 67 -11 73 -18 17 -22 39 11 42 63 1 25 6 47 11 49 13 4 -15
78 -28 74 -6 -1 -9 2 -6 6 9 14 -40 62 -63 62 -10 0 -21 5 -23 11 -6 18 -81
22 -103 5z"/>
<path d="M8680 2860 c-94 -39 -140 -73 -166 -122 -21 -40 -18 -41 29 -15 23
13 56 28 72 35 176 67 272 105 279 112 10 9 -13 16 -80 23 -32 4 -62 -4 -134
-33z"/>
<path d="M3963 2506 l-21 -24 23 -38 c17 -28 21 -43 14 -56 -8 -15 -5 -18 21
-18 16 0 33 -1 38 -2 11 -2 61 -120 62 -145 0 -12 4 -24 9 -27 9 -6 33 -105
50 -211 15 -94 25 -272 26 -490 2 -259 3 -274 15 -254 5 9 10 45 10 80 -1 35
2 172 5 304 3 149 1 257 -6 285 -5 24 -13 65 -16 90 -6 57 -8 68 -18 105 -12
49 -59 190 -65 195 -6 6 -60 118 -60 126 0 18 32 -24 56 -74 16 -31 36 -68 45
-82 9 -14 17 -29 17 -35 0 -9 22 -21 22 -12 0 2 -17 40 -39 83 -40 83 -87 148
-101 139 -4 -3 -8 1 -7 8 1 36 -5 47 -25 48 -13 0 -17 3 -10 6 15 6 6 23 -12
23 -7 0 -22 -11 -33 -24z"/>
<path d="M8264 2249 c-3 -6 -15 -8 -26 -6 -16 5 -28 -13 -78 -113 -32 -66 -62
-129 -65 -142 -4 -13 -16 -41 -25 -63 -10 -22 -23 -58 -30 -80 -6 -22 -15 -49
-20 -60 -5 -11 -13 -35 -19 -54 -11 -33 -10 -33 7 -18 37 34 45 16 9 -19 -36
-35 -48 -64 -26 -64 6 0 41 27 77 61 71 64 182 145 274 198 31 17 78 52 104
77 l49 46 -60 -38 c-33 -21 -74 -45 -91 -54 -16 -9 -43 -25 -60 -36 -43 -31
-63 -38 -30 -12 16 13 37 31 45 41 9 10 41 43 71 73 l55 55 -37 -17 c-51 -24
-61 -9 -18 27 48 39 26 36 -44 -6 -60 -36 -84 -45 -86 -32 -1 8 116 118 180
170 32 26 32 27 3 8 -17 -12 -42 -21 -55 -21 -13 0 -39 -11 -58 -25 -19 -14
-47 -25 -63 -25 -29 0 -28 2 37 61 49 45 64 64 54 70 -19 12 -66 11 -74 -2z"/>
<path d="M4200 2110 c0 -5 10 -10 23 -10 22 -1 22 -1 -3 -15 l-25 -14 25 -1
c24 -1 24 -1 5 -12 -19 -11 -18 -12 10 -24 26 -12 27 -13 8 -14 -13 0 -23 -4
-23 -10 0 -5 3 -9 8 -9 4 1 15 1 25 0 25 -1 11 -21 -16 -21 -19 -1 -18 -3 8
-15 27 -12 28 -13 8 -14 -32 -1 -29 -21 3 -21 14 0 23 -4 19 -10 -3 -5 -15
-10 -26 -10 -10 0 -19 -4 -19 -9 0 -4 11 -7 25 -6 14 2 25 -1 25 -6 0 -5 -9
-9 -21 -9 -11 0 -17 -4 -14 -10 3 -5 15 -10 26 -10 30 0 12 -20 -19 -21 -26
-1 -26 -1 6 -12 l34 -10 -29 -13 c-25 -11 -26 -12 -6 -13 31 -1 40 -21 9 -21
-14 0 -27 -4 -30 -9 -3 -5 0 -9 7 -8 31 1 47 -4 47 -14 0 -6 -7 -9 -15 -6 -8
4 -17 2 -20 -2 -2 -5 5 -12 18 -16 l22 -8 -23 -4 c-26 -5 -20 -23 9 -23 27 0
14 -20 -14 -21 -19 0 -19 -2 6 -11 15 -5 25 -14 22 -18 -3 -5 -12 -7 -20 -3
-8 3 -15 0 -15 -6 0 -10 14 -15 33 -12 19 3 4 -18 -15 -22 l-23 -4 23 -8 c28
-9 29 -25 1 -25 -12 0 -17 -4 -14 -11 4 -6 13 -8 21 -5 8 3 14 1 14 -4 0 -6
-12 -10 -26 -10 -14 0 -23 -4 -19 -10 3 -5 15 -10 26 -10 30 0 22 -20 -8 -21
l-28 -1 28 -11 c31 -12 37 -32 7 -22 -11 3 -20 2 -20 -3 0 -5 10 -13 23 -17
21 -7 20 -8 -8 -14 l-30 -8 28 -7 c27 -8 39 -28 15 -25 -7 1 -20 1 -28 0 -12
-1 -13 -3 -1 -10 7 -5 27 -7 44 -6 31 2 31 3 28 56 -1 30 -4 56 -6 59 -2 3 -6
61 -10 130 -6 122 -22 305 -29 345 -2 11 -7 47 -11 80 -4 33 -14 68 -22 78
-17 18 -53 23 -53 7z"/>
<path d="M8030 1536 c-71 -31 -75 -35 -83 -72 -10 -52 -25 -197 -20 -206 4 -7
116 62 182 111 38 29 27 40 -18 17 -16 -9 -35 -16 -41 -16 -25 0 -5 21 54 59
55 35 87 61 73 61 -2 0 -45 -18 -96 -40 -96 -41 -108 -29 -17 17 69 35 130 77
119 80 -6 2 -47 -12 -92 -32 -46 -19 -86 -35 -89 -35 -4 0 18 16 48 36 98 65
94 69 -20 20z"/>
<path d="M8040 1280 c-19 -11 -47 -19 -61 -20 -56 0 -60 -22 -75 -350 -4 -80
-8 -148 -11 -152 -2 -5 1 -8 7 -8 8 0 10 -9 6 -25 -4 -14 -2 -25 3 -25 14 0
71 81 71 101 0 10 12 32 27 50 16 18 27 41 25 50 -2 11 11 31 30 48 25 23 30
32 21 42 -9 9 -19 7 -46 -10 -62 -38 -61 -22 1 39 53 51 77 90 57 90 -10 0
-89 -42 -118 -63 -18 -12 -32 -16 -38 -10 -6 6 18 28 69 61 44 28 85 58 92 66
20 26 8 37 -24 21 -38 -20 -49 -19 -36 4 7 14 6 21 -3 24 -8 3 -1 17 21 39 49
51 43 61 -18 28z"/>
<path d="M6840 365 c-9 -11 -8 -33 5 -100 9 -47 13 -90 10 -95 -4 -6 6 -15 20
-20 21 -8 25 -13 16 -23 -8 -10 -7 -17 1 -25 15 -15 38 -16 38 -1 0 6 11 8 29
4 20 -4 34 -1 45 10 19 19 20 27 4 43 -8 8 -5 14 17 22 33 13 25 25 -17 25
-26 0 -31 5 -34 29 -3 30 -26 57 -58 69 -14 6 -16 10 -7 21 12 14 5 23 -35 44
-17 9 -25 8 -34 -3z"/>
</g>
</svg>
